<svg width="256" height="256" viewBox="0 0 256 256" xmlns="http://www.w3.org/2000/svg" role="img" aria-labelledby="bedrock-title">
  <title id="bedrock-title">AWS Bedrock</title>
<style>
  .icon-bg { fill: #242938; }
  @media (prefers-color-scheme: light) {
    .icon-bg { fill: #f4f2ed; }
  }
</style>
  <rect class="icon-bg" width="256" height="256" rx="60"/>
  <rect x="40" y="40" width="176" height="176" rx="24" fill="#01a88d"/>
  <g transform="translate(66.4 66.4) scale(2.2)" fill="#ffffff">
    <path d="M52 27a2 2 0 1 1 0-4 2 2 0 0 1 0 4ZM20.113 53.908l-3.248-1.894 6.665-4.166-1.06-1.696-7.557 4.723L9 47.426v-8.891l5.555-3.703-1.11-1.664-5.486 3.657L2 33.42v-4.84l6.496-3.712-.992-1.736L2 26.277V22.58l6-3.428 6 3.428v3.854l-4.515 2.709 1.03 1.714L15 28.166l4.485 2.691 1.03-1.714L16 26.434v-3.899l5.555-3.703A1 1 0 0 0 22 18v-7h-2v6.465l-5.041 3.36L9 17.42V8.574l5-2.916V14h2V4.491l4.113-2.399L28 4.721v28.713l-14.515 8.709 1.03 1.714L28 35.766v15.513l-7.887 2.629ZM50 38a2 2 0 1 1-4 0 2 2 0 0 1 4 0Zm-10 10a2 2 0 1 1-4 0 2 2 0 0 1 4 0Zm-1-40a2 2 0 1 1 4 0 2 2 0 0 1-4 0Zm13 13c-1.859 0-3.411 1.28-3.858 3H30v-5h11a1 1 0 0 0 1-1v-6.142c1.72-.447 3-2 3-3.858a4.004 4.004 0 0 0-4-4 4.004 4.004 0 0 0-4 4c0 1.858 1.28 3.411 3 3.858V17H30V4a1 1 0 0 0-.684-.949l-9-3a1 1 0 0 0-.82.085l-12 7A1 1 0 0 0 7 8v9.42L.504 21.132A1 1 0 0 0 0 22v12a1 1 0 0 0 .504.868L7 38.58V48a1 1 0 0 0 .496.864l12 7A1 1 0 0 0 20 56c.106 0 .213-.017.316-.051l9-3A1 1 0 0 0 30 52V40h7v4.142c-1.72.447-3 2-3 3.858a4.004 4.004 0 0 0 4 4 4.004 4.004 0 0 0 4-4c0-1.858-1.28-3.411-3-3.858V39a1 1 0 0 0-1-1h-8v-5h12.5l2.138 2.85A3.98 3.98 0 0 0 44 38a4.004 4.004 0 0 0 4 4 4.004 4.004 0 0 0 4-4 4.004 4.004 0 0 0-4-4c-.684 0-1.318.188-1.881.492L43.8 31.4A1 1 0 0 0 43 31H30v-5h18.142c.447 1.72 1.999 3 3.858 3a4.004 4.004 0 0 0 4-4 4.004 4.004 0 0 0-4-4Z"/>
  </g>
</svg>
